<?xml version="1.0" encoding="UTF-8"?>
<!DOCTYPE svg PUBLIC "-//W3C//DTD SVG 1.1//EN" "http://www.w3.org/Graphics/SVG/1.1/DTD/svg11.dtd">
<svg xmlns="http://www.w3.org/2000/svg" version="1.1" width="128px" height="128px" style="shape-rendering:geometricPrecision; text-rendering:geometricPrecision; image-rendering:optimizeQuality; fill-rule:evenodd; clip-rule:evenodd" xmlns:xlink="http://www.w3.org/1999/xlink">
<g><path style="opacity:0.905" fill="#000000" d="M 23.5,5.5 C 50.1687,5.33336 76.8354,5.50003 103.5,6C 112.263,8.43043 118.096,13.9304 121,22.5C 121.667,50.1667 121.667,77.8333 121,105.5C 117.052,112.781 111.218,117.947 103.5,121C 76.8333,121.667 50.1667,121.667 23.5,121C 14.5725,117.74 8.73917,111.573 6,102.5C 5.33333,76.5 5.33333,50.5 6,24.5C 8.25057,14.7535 14.0839,8.42013 23.5,5.5 Z M 64.5,14.5 C 76.5046,14.3335 88.5046,14.5001 100.5,15C 105.378,16.1926 108.878,19.0259 111,23.5C 111.667,49.8333 111.667,76.1667 111,102.5C 109.192,106.974 106.026,110.141 101.5,112C 77.1667,112.667 52.8333,112.667 28.5,112C 23.5879,110.292 19.4212,107.458 16,103.5C 15.0353,76.451 15.3686,49.451 17,22.5C 19.2643,19.5665 22.0976,17.3999 25.5,16C 38.6731,15.831 51.6731,15.331 64.5,14.5 Z"/></g>
<g><path style="opacity:0.834" fill="#000000" d="M 34.5,90.5 C 34.3334,77.4957 34.5001,64.4957 35,51.5C 35.4893,48.0823 37.4893,46.7489 41,47.5C 42.9806,47.6292 44.6472,48.2958 46,49.5C 46.3333,63.5 46.6667,77.5 47,91.5C 50.5338,87.6311 54.3672,84.1311 58.5,81C 63.0318,80.1004 65.6985,81.9337 66.5,86.5C 65.9091,88.2662 65.0758,89.9328 64,91.5C 57.8333,97.6667 51.6667,103.833 45.5,110C 42.5,110.667 39.5,110.667 36.5,110C 30.3651,102.864 23.8651,96.0307 17,89.5C 15.3031,81.7717 18.1364,79.2717 25.5,82C 28.3694,85.0379 31.3694,87.8712 34.5,90.5 Z"/></g>
</svg>
