<?xml version="1.0" encoding="UTF-8"?>
<!DOCTYPE svg PUBLIC "-//W3C//DTD SVG 1.1//EN" "http://www.w3.org/Graphics/SVG/1.1/DTD/svg11.dtd">
<svg xmlns="http://www.w3.org/2000/svg" version="1.1" width="128px" height="128px" style="shape-rendering:geometricPrecision; text-rendering:geometricPrecision; image-rendering:optimizeQuality; fill-rule:evenodd; clip-rule:evenodd" xmlns:xlink="http://www.w3.org/1999/xlink">
<g><path style="opacity:0.932" fill="#cf5a7c" d="M 23.5,5.5 C 50.1687,5.33336 76.8354,5.50003 103.5,6C 112.263,8.43043 118.096,13.9304 121,22.5C 121.667,50.1667 121.667,77.8333 121,105.5C 117.052,112.781 111.218,117.947 103.5,121C 76.8333,121.667 50.1667,121.667 23.5,121C 14.5725,117.74 8.73917,111.573 6,102.5C 5.33333,76.5 5.33333,50.5 6,24.5C 8.25057,14.7535 14.0839,8.42013 23.5,5.5 Z"/></g>
<g><path style="opacity:1" fill="#363535" d="M 25.5,11.5 C 50.8355,11.3334 76.1689,11.5 101.5,12C 110.536,15.37 115.369,21.87 116,31.5C 116.667,53.5 116.667,75.5 116,97.5C 113.093,107.406 106.593,113.573 96.5,116C 74.1667,116.667 51.8333,116.667 29.5,116C 20.7031,113.534 14.8698,108.034 12,99.5C 11.3333,74.8333 11.3333,50.1667 12,25.5C 14.6873,18.981 19.1873,14.3143 25.5,11.5 Z"/></g>
<g><path style="opacity:1" fill="#fafafa" d="M 45.5,50.5 C 45.1674,64.8488 45.5007,79.1821 46.5,93.5C 47.1067,93.3764 47.44,93.0431 47.5,92.5C 50.6293,88.8691 53.9626,85.3691 57.5,82C 63.4931,80.3317 65.9931,82.4983 65,88.5C 58.1667,95.3333 51.3333,102.167 44.5,109C 42.6354,110.301 40.6354,110.635 38.5,110C 31.3333,102.833 24.1667,95.6667 17,88.5C 16.0557,82.4467 18.5557,80.2801 24.5,82C 28.0374,85.3691 31.3707,88.8691 34.5,92.5C 34.56,93.0431 34.8933,93.3764 35.5,93.5C 36.4993,79.1821 36.8326,64.8488 36.5,50.5C 39.5,46.5 42.5,46.5 45.5,50.5 Z"/></g>
<g><path style="opacity:1" fill="#6f6f6f" d="M 36.5,50.5 C 36.8326,64.8488 36.4993,79.1821 35.5,93.5C 34.8933,93.3764 34.56,93.0431 34.5,92.5C 35.1667,78.5 35.8333,64.5 36.5,50.5 Z"/></g>
<g><path style="opacity:1" fill="#9b9b9b" d="M 45.5,50.5 C 46.1667,64.5 46.8333,78.5 47.5,92.5C 47.44,93.0431 47.1067,93.3764 46.5,93.5C 45.5007,79.1821 45.1674,64.8488 45.5,50.5 Z"/></g>
</svg>
